<svg viewBox="0 0 96 50" xmlns="http://www.w3.org/2000/svg">
<style>
  .screen {
    font-family: "ui-monospace", "Consolas", "Liberation Mono", "Source Code Pro", monospace;
    font-size: 1px;
  }
</style>
<g class="screen">
<rect x="0" y="0" width="96" height="50" style="fill: #f5ede3;" />
<rect x="1.2" y="0" width="16.800001" height="1" style="fill: #cfba9d;" />
<rect x="18.6" y="0" width="2.4" height="1" style="fill: #eddfcb;" />
<rect x="63.000004" y="0" width="2.4" height="1" style="fill: #eddfcb;" />
<rect x="18.6" y="1" width="2.4" height="1" style="fill: #eddfcb;" />
<rect x="63.000004" y="1" width="2.4" height="1" style="fill: #eddfcb;" />
<rect x="18.6" y="2" width="2.4" height="1" style="fill: #eddfcb;" />
<rect x="63.000004" y="2" width="2.4" height="1" style="fill: #eddfcb;" />
<rect x="18.6" y="3" width="2.4" height="1" style="fill: #eddfcb;" />
<rect x="63.000004" y="3" width="2.4" height="1" style="fill: #eddfcb;" />
<rect x="18.6" y="4" width="2.4" height="1" style="fill: #eddfcb;" />
<rect x="63.000004" y="4" width="2.4" height="1" style="fill: #eddfcb;" />
<rect x="18.6" y="5" width="2.4" height="1" style="fill: #eddfcb;" />
<rect x="63.000004" y="5" width="2.4" height="1" style="fill: #eddfcb;" />
<rect x="18.6" y="6" width="2.4" height="1" style="fill: #eddfcb;" />
<rect x="63.000004" y="6" width="2.4" height="1" style="fill: #eddfcb;" />
<rect x="18.6" y="7" width="2.4" height="1" style="fill: #eddfcb;" />
<rect x="63.000004" y="7" width="2.4" height="1" style="fill: #eddfcb;" />
<rect x="18.6" y="8" width="2.4" height="1" style="fill: #eddfcb;" />
<rect x="63.000004" y="8" width="2.4" height="1" style="fill: #eddfcb;" />
<rect x="18.6" y="9" width="2.4" height="1" style="fill: #eddfcb;" />
<rect x="63.000004" y="9" width="2.4" height="1" style="fill: #eddfcb;" />
<rect x="18.6" y="10" width="2.4" height="1" style="fill: #eddfcb;" />
<rect x="63.000004" y="10" width="2.4" height="1" style="fill: #eddfcb;" />
<rect x="18.6" y="11" width="2.4" height="1" style="fill: #eddfcb;" />
<rect x="63.000004" y="11" width="2.4" height="1" style="fill: #eddfcb;" />
<rect x="18.6" y="12" width="2.4" height="1" style="fill: #eddfcb;" />
<rect x="63.000004" y="12" width="2.4" height="1" style="fill: #eddfcb;" />
<rect x="18.6" y="13" width="2.4" height="1" style="fill: #eddfcb;" />
<rect x="21" y="13" width="4.2000003" height="1" style="fill: #cfba9d;" />
<rect x="63.000004" y="13" width="2.4" height="1" style="fill: #eddfcb;" />
<rect x="18.6" y="14" width="2.4" height="1" style="fill: #eddfcb;" />
<rect x="63.000004" y="14" width="2.4" height="1" style="fill: #eddfcb;" />
<rect x="18.6" y="15" width="2.4" height="1" style="fill: #eddfcb;" />
<rect x="63.000004" y="15" width="2.4" height="1" style="fill: #eddfcb;" />
<rect x="18.6" y="16" width="2.4" height="1" style="fill: #eddfcb;" />
<rect x="63.000004" y="16" width="2.4" height="1" style="fill: #eddfcb;" />
<rect x="18.6" y="17" width="2.4" height="1" style="fill: #eddfcb;" />
<rect x="63.000004" y="17" width="2.4" height="1" style="fill: #eddfcb;" />
<rect x="18.6" y="18" width="2.4" height="1" style="fill: #eddfcb;" />
<rect x="63.000004" y="18" width="2.4" height="1" style="fill: #eddfcb;" />
<rect x="18.6" y="19" width="2.4" height="1" style="fill: #eddfcb;" />
<rect x="63.000004" y="19" width="2.4" height="1" style="fill: #eddfcb;" />
<rect x="18.6" y="20" width="2.4" height="1" style="fill: #eddfcb;" />
<rect x="63.000004" y="20" width="2.4" height="1" style="fill: #eddfcb;" />
<rect x="18.6" y="21" width="2.4" height="1" style="fill: #eddfcb;" />
<rect x="63.000004" y="21" width="2.4" height="1" style="fill: #eddfcb;" />
<rect x="18.6" y="22" width="2.4" height="1" style="fill: #eddfcb;" />
<rect x="63.000004" y="22" width="2.4" height="1" style="fill: #eddfcb;" />
<rect x="18.6" y="23" width="2.4" height="1" style="fill: #eddfcb;" />
<rect x="63.000004" y="23" width="2.4" height="1" style="fill: #eddfcb;" />
<rect x="18.6" y="24" width="2.4" height="1" style="fill: #eddfcb;" />
<rect x="63.000004" y="24" width="2.4" height="1" style="fill: #eddfcb;" />
<rect x="18.6" y="25" width="2.4" height="1" style="fill: #eddfcb;" />
<rect x="63.000004" y="25" width="2.4" height="1" style="fill: #eddfcb;" />
<rect x="18.6" y="26" width="2.4" height="1" style="fill: #eddfcb;" />
<rect x="63.000004" y="26" width="2.4" height="1" style="fill: #eddfcb;" />
<rect x="18.6" y="27" width="2.4" height="1" style="fill: #eddfcb;" />
<rect x="63.000004" y="27" width="2.4" height="1" style="fill: #eddfcb;" />
<rect x="18.6" y="28" width="2.4" height="1" style="fill: #eddfcb;" />
<rect x="63.000004" y="28" width="2.4" height="1" style="fill: #eddfcb;" />
<rect x="18.6" y="29" width="2.4" height="1" style="fill: #eddfcb;" />
<rect x="18.6" y="30" width="2.4" height="1" style="fill: #eddfcb;" />
<rect x="18.6" y="31" width="2.4" height="1" style="fill: #eddfcb;" />
<rect x="18.6" y="32" width="2.4" height="1" style="fill: #eddfcb;" />
<rect x="18.6" y="33" width="2.4" height="1" style="fill: #eddfcb;" />
<rect x="18.6" y="34" width="2.4" height="1" style="fill: #eddfcb;" />
<rect x="18.6" y="35" width="2.4" height="1" style="fill: #eddfcb;" />
<rect x="18.6" y="37" width="44.4" height="1" style="fill: #363c50;" />
<rect x="63.000004" y="37" width="33" height="1" style="fill: #6a6d7a;" />
<rect x="18.6" y="38" width="77.4" height="9" style="fill: #f2e6d5;" />
<rect x="18.6" y="47" width="77.4" height="1" style="fill: #cfba9d;" />
<rect x="0" y="48" width="96" height="1" style="fill: #6a6d7a;" />
<text x="1.2" y="0.75" textLength="15.6" style="fill: #2f3d58; font-weight: 600;">~/code/other/hi.nvim.rs/..</text>
<text x="18" y="0.75" textLength="0.6" style="fill: #363c50;">│</text>
<text x="19.2" y="0.75" textLength="1.2" style="fill: #565553;">28</text>
<text x="21" y="0.75" textLength="3.6000001" style="fill: #473550;">struct</text>
<text x="25.2" y="0.75" textLength="1.8000001" style="fill: #572d45; font-weight: 600;">Cli</text>
<text x="27.6" y="0.75" textLength="0.6" style="fill: #4a4a4a;">{</text>
<text x="62.4" y="0.75" textLength="0.6" style="fill: #363c50;">│</text>
<text x="64.200005" y="0.75" textLength="0.6" style="fill: #565553;">1</text>
<text x="65.4" y="0.75" textLength="5.4" style="fill: #2f3d58; font-weight: 600;">[package]</text>
<text x="1.2" y="1.75" textLength="1.8000001" style="fill: #363c50;"> </text>
<text x="3.6000001" y="1.75" textLength="2.4" style="fill: #572d45;">.git</text>
<text x="18" y="1.75" textLength="0.6" style="fill: #363c50;">│</text>
<text x="19.2" y="1.75" textLength="1.2" style="fill: #565553;">29</text>
<text x="23.400002" y="1.75" textLength="39" style="fill: #3d3d3d; font-style: italic;">/// The compilation target. When Vim is chosen as target, highlig</text>
<text x="62.4" y="1.75" textLength="0.6" style="fill: #363c50;">│</text>
<text x="64.200005" y="1.75" textLength="0.6" style="fill: #565553;">2</text>
<text x="65.4" y="1.75" textLength="3.6000001" style="fill: #363c50;">name =</text>
<text x="69.600006" y="1.75" textLength="7.2000003" style="fill: #2c451e;">"hi-nvim-rs"</text>
<text x="1.2" y="2.75" textLength="1.8000001" style="fill: #363c50;"> </text>
<text x="3.6000001" y="2.75" textLength="4.2000003" style="fill: #572d45;">.github</text>
<text x="18" y="2.75" textLength="0.6" style="fill: #363c50;">│</text>
<text x="19.2" y="2.75" textLength="1.2" style="fill: #565553;">30</text>
<text x="23.400002" y="2.75" textLength="38.4" style="fill: #3d3d3d; font-style: italic;">/// names are removed. Supported characters in Vim correspond to</text>
<text x="62.4" y="2.75" textLength="0.6" style="fill: #363c50;">│</text>
<text x="64.200005" y="2.75" textLength="0.6" style="fill: #565553;">3</text>
<text x="65.4" y="2.75" textLength="5.4" style="fill: #363c50;">version =</text>
<text x="71.4" y="2.75" textLength="4.2000003" style="fill: #2c451e;">"0.1.4"</text>
<text x="1.2" y="3.75" textLength="1.8000001" style="fill: #363c50;"> </text>
<text x="3.6000001" y="3.75" textLength="7.2000003" style="fill: #572d45;">colorschemes</text>
<text x="18" y="3.75" textLength="0.6" style="fill: #363c50;">│</text>
<text x="19.2" y="3.75" textLength="1.2" style="fill: #565553;">31</text>
<text x="23.400002" y="3.75" textLength="39" style="fill: #3d3d3d; font-style: italic;">/// Neovim adds two characters, supporting regexp [a-zA-Z0-9_\.@]</text>
<text x="62.4" y="3.75" textLength="0.6" style="fill: #363c50;">│</text>
<text x="64.200005" y="3.75" textLength="0.6" style="fill: #565553;">4</text>
<text x="65.4" y="3.75" textLength="5.4" style="fill: #363c50;">edition =</text>
<text x="71.4" y="3.75" textLength="3.6000001" style="fill: #2c451e;">"2021"</text>
<text x="1.2" y="4.75" textLength="1.8000001" style="fill: #363c50;"> </text>
<text x="3.6000001" y="4.75" textLength="10.8" style="fill: #572d45;">default_highlights</text>
<text x="18" y="4.75" textLength="0.6" style="fill: #363c50;">│</text>
<text x="19.2" y="4.75" textLength="1.2" style="fill: #565553;">32</text>
<text x="23.400002" y="4.75" textLength="0.6" style="fill: #473d07;">#</text>
<text x="24" y="4.75" textLength="0.6" style="fill: #4a4a4a;">[</text>
<text x="24.6" y="4.75" textLength="1.8000001" style="fill: #473d07; font-weight: 600;">arg</text>
<text x="26.400002" y="4.75" textLength="0.6" style="fill: #4a4a4a;">(</text>
<text x="27.000002" y="4.75" textLength="3" style="fill: #363c50;">short</text>
<text x="30.000002" y="4.75" textLength="0.6" style="fill: #4a4a4a;">,</text>
<text x="31.2" y="4.75" textLength="2.4" style="fill: #363c50;">long</text>
<text x="33.600002" y="4.75" textLength="0.6" style="fill: #4a4a4a;">,</text>
<text x="34.800003" y="4.75" textLength="6" style="fill: #363c50;">value_name</text>
<text x="41.4" y="4.75" textLength="0.6" style="fill: #443d1d;">=</text>
<text x="42.600002" y="4.75" textLength="4.8" style="fill: #2c451e;">"target"</text>
<text x="47.4" y="4.75" textLength="0.6" style="fill: #4a4a4a;">,</text>
<text x="48.600002" y="4.75" textLength="6" style="fill: #363c50;">value_enum</text>
<text x="54.600002" y="4.75" textLength="0.6" style="fill: #4a4a4a;">,</text>
<text x="55.800003" y="4.75" textLength="7.2000003" style="fill: #363c50;">default_val│</text>
<text x="64.200005" y="4.75" textLength="0.6" style="fill: #565553;">5</text>
<text x="65.4" y="4.75" textLength="7.8" style="fill: #363c50;">description =</text>
<text x="73.8" y="4.75" textLength="22.2" style="fill: #2c451e;">"(Neo)vim perceptual color scheme com</text>
<text x="1.2" y="5.75" textLength="1.8000001" style="fill: #363c50;"> </text>
<text x="3.6000001" y="5.75" textLength="8.400001" style="fill: #572d45;">hi-nvim-rs-web</text>
<text x="18" y="5.75" textLength="0.6" style="fill: #363c50;">│</text>
<text x="19.2" y="5.75" textLength="1.2" style="fill: #565553;">33</text>
<text x="23.400002" y="5.75" textLength="3.6000001" style="fill: #363c50;">target</text>
<text x="27.000002" y="5.75" textLength="0.6" style="fill: #4a4a4a;">:</text>
<text x="28.2" y="5.75" textLength="3.6000001" style="fill: #572d45; font-weight: 600;">Target</text>
<text x="31.800001" y="5.75" textLength="0.6" style="fill: #4a4a4a;">,</text>
<text x="62.4" y="5.75" textLength="0.6" style="fill: #363c50;">│</text>
<text x="64.200005" y="5.75" textLength="0.6" style="fill: #565553;">6</text>
<text x="65.4" y="5.75" textLength="7.2000003" style="fill: #363c50;">keywords = [</text>
<text x="72.600006" y="5.75" textLength="4.8" style="fill: #2c451e;">"neovim"</text>
<text x="77.4" y="5.75" textLength="0.6" style="fill: #363c50;">,</text>
<text x="78.600006" y="5.75" textLength="3" style="fill: #2c451e;">"vim"</text>
<text x="81.600006" y="5.75" textLength="0.6" style="fill: #363c50;">,</text>
<text x="82.8" y="5.75" textLength="7.8" style="fill: #2c451e;">"colorscheme"</text>
<text x="90.600006" y="5.75" textLength="0.6" style="fill: #363c50;">,</text>
<text x="91.8" y="5.75" textLength="4.2000003" style="fill: #2c451e;">"theme"</text>
<text x="1.2" y="6.75" textLength="1.8000001" style="fill: #363c50;"> </text>
<text x="3.6000001" y="6.75" textLength="12.6" style="fill: #572d45;">hi-nvim-rs-web-styler</text>
<text x="18" y="6.75" textLength="0.6" style="fill: #363c50;">│</text>
<text x="19.2" y="6.75" textLength="1.2" style="fill: #565553;">34</text>
<text x="62.4" y="6.75" textLength="0.6" style="fill: #363c50;">│</text>
<text x="64.200005" y="6.75" textLength="0.6" style="fill: #565553;">7</text>
<text x="65.4" y="6.75" textLength="5.4" style="fill: #363c50;">license =</text>
<text x="71.4" y="6.75" textLength="11.400001" style="fill: #2c451e;">"MIT OR Apache-2.0"</text>
<text x="1.2" y="7.75" textLength="1.8000001" style="fill: #363c50;"> </text>
<text x="3.6000001" y="7.75" textLength="3" style="fill: #572d45;">media</text>
<text x="18" y="7.75" textLength="0.6" style="fill: #363c50;">│</text>
<text x="19.2" y="7.75" textLength="1.2" style="fill: #565553;">35</text>
<text x="23.400002" y="7.75" textLength="39" style="fill: #3d3d3d; font-style: italic;">/// Color scheme input file. Reads from standard input if not set</text>
<text x="62.4" y="7.75" textLength="0.6" style="fill: #363c50;">│</text>
<text x="64.200005" y="7.75" textLength="0.6" style="fill: #565553;">8</text>
<text x="65.4" y="7.75" textLength="4.8" style="fill: #363c50;">readme =</text>
<text x="70.8" y="7.75" textLength="6.6000004" style="fill: #2c451e;">"README.md"</text>
<text x="1.2" y="8.75" textLength="1.8000001" style="fill: #363c50;"> </text>
<text x="3.6000001" y="8.75" textLength="4.2000003" style="fill: #572d45;">scripts</text>
<text x="18" y="8.75" textLength="0.6" style="fill: #363c50;">│</text>
<text x="19.2" y="8.75" textLength="1.2" style="fill: #565553;">36</text>
<text x="23.400002" y="8.75" textLength="39" style="fill: #3d3d3d; font-style: italic;">// TODO: perhaps accept multiple files, merging the configuration</text>
<text x="62.4" y="8.75" textLength="0.6" style="fill: #363c50;">│</text>
<text x="64.200005" y="8.75" textLength="0.6" style="fill: #565553;">9</text>
<text x="65.4" y="8.75" textLength="7.2000003" style="fill: #363c50;">repository =</text>
<text x="73.200005" y="8.75" textLength="22.800001" style="fill: #2c451e;">"https://github.com/tomcur/hi-nvim-rs"</text>
<text x="1.2" y="9.75" textLength="1.8000001" style="fill: #363c50;"> </text>
<text x="3.6000001" y="9.75" textLength="1.8000001" style="fill: #572d45;">src</text>
<text x="18" y="9.75" textLength="0.6" style="fill: #363c50;">│</text>
<text x="19.2" y="9.75" textLength="1.2" style="fill: #565553;">37</text>
<text x="23.400002" y="9.75" textLength="36.600002" style="fill: #3d3d3d; font-style: italic;">// configurations overridden by more specific configurations)</text>
<text x="62.4" y="9.75" textLength="0.6" style="fill: #363c50;">│</text>
<text x="63.600002" y="9.75" textLength="1.2" style="fill: #565553;">10</text>
<text x="2.4" y="10.75" textLength="7.2000003" style="fill: #363c50;"> .gitignore</text>
<text x="18" y="10.75" textLength="0.6" style="fill: #363c50;">│</text>
<text x="19.2" y="10.75" textLength="1.2" style="fill: #565553;">38</text>
<text x="23.400002" y="10.75" textLength="2.4" style="fill: #363c50;">file</text>
<text x="25.800001" y="10.75" textLength="0.6" style="fill: #4a4a4a;">:</text>
<text x="27.000002" y="10.75" textLength="3.6000001" style="fill: #572d45; font-weight: 600;">Option</text>
<text x="30.6" y="10.75" textLength="0.6" style="fill: #4a4a4a;">&lt;</text>
<text x="31.2" y="10.75" textLength="4.2000003" style="fill: #572d45; font-weight: 600;">PathBuf</text>
<text x="35.4" y="10.75" textLength="1.2" style="fill: #4a4a4a;">>,</text>
<text x="62.4" y="10.75" textLength="0.6" style="fill: #363c50;">│</text>
<text x="63.600002" y="10.75" textLength="1.2" style="fill: #565553;">11</text>
<text x="65.4" y="10.75" textLength="8.400001" style="fill: #2f3d58; font-weight: 600;">[dependencies]</text>
<text x="2.4" y="11.75" textLength="6" style="fill: #363c50;"> build.rs</text>
<text x="18" y="11.75" textLength="0.6" style="fill: #363c50;">│</text>
<text x="19.2" y="11.75" textLength="1.2" style="fill: #565553;">39</text>
<text x="21" y="11.75" textLength="0.6" style="fill: #4a4a4a;">}</text>
<text x="62.4" y="11.75" textLength="0.6" style="fill: #363c50;">│</text>
<text x="63.600002" y="11.75" textLength="1.2" style="fill: #565553;">12</text>
<text x="65.4" y="11.75" textLength="4.8" style="fill: #363c50;">anyhow =</text>
<text x="70.8" y="11.75" textLength="1.8000001" style="fill: #2c451e;">"1"</text>
<text x="2.4" y="12.75" textLength="7.2000003" style="fill: #363c50;"> Cargo.lock</text>
<text x="18" y="12.75" textLength="0.6" style="fill: #363c50;">│</text>
<text x="19.2" y="12.75" textLength="1.2" style="fill: #565553;">40</text>
<text x="62.4" y="12.75" textLength="0.6" style="fill: #363c50;">│</text>
<text x="63.600002" y="12.75" textLength="1.2" style="fill: #565553;">13</text>
<text x="65.4" y="12.75" textLength="10.8" style="fill: #363c50;">clap = { version =</text>
<text x="76.8" y="12.75" textLength="3" style="fill: #2c451e;">"4.3"</text>
<text x="79.8" y="12.75" textLength="8.400001" style="fill: #363c50;">, features = [</text>
<text x="88.200005" y="12.75" textLength="4.8" style="fill: #2c451e;">"derive"</text>
<text x="93" y="12.75" textLength="1.8000001" style="fill: #363c50;">] }</text>
<text x="2.4" y="13.75" textLength="0.6" style="fill: #363c50;"></text>
<text x="3.6000001" y="13.75" textLength="6" style="fill: #2f3d58; font-weight: 600;">Cargo.toml</text>
<text x="18" y="13.75" textLength="0.6" style="fill: #363c50;">│</text>
<text x="19.2" y="13.75" textLength="1.2" style="fill: #565553;">41</text>
<text x="21" y="13.75" textLength="4.2000003" style="fill: #363c50; font-weight: 600;">fn main</text>
<text x="25.2" y="13.75" textLength="1.2" style="fill: #4a4a4a;">()</text>
<text x="27.000002" y="13.75" textLength="1.2" style="fill: #4a4a4a;">-></text>
<text x="28.800001" y="13.75" textLength="3.6000001" style="fill: #473d07; font-weight: 600;">anyhow</text>
<text x="32.4" y="13.75" textLength="1.2" style="fill: #4a4a4a;">::</text>
<text x="33.600002" y="13.75" textLength="3.6000001" style="fill: #572d45; font-weight: 600;">Result</text>
<text x="37.2" y="13.75" textLength="2.4" style="fill: #4a4a4a;">&lt;()></text>
<text x="40.2" y="13.75" textLength="0.6" style="fill: #4a4a4a;">{</text>
<text x="62.4" y="13.75" textLength="0.6" style="fill: #363c50;">│</text>
<text x="63.600002" y="13.75" textLength="1.2" style="fill: #565553;">14</text>
<text x="65.4" y="13.75" textLength="5.4" style="fill: #363c50;">palette =</text>
<text x="71.4" y="13.75" textLength="4.2000003" style="fill: #2c451e;">"0.7.6"</text>
<text x="2.4" y="14.75" textLength="8.400001" style="fill: #363c50;"> CHANGELOG.md</text>
<text x="18" y="14.75" textLength="0.6" style="fill: #363c50;">│</text>
<text x="19.2" y="14.75" textLength="1.2" style="fill: #565553;">42</text>
<text x="23.400002" y="14.75" textLength="1.8000001" style="fill: #473550;">let</text>
<text x="25.800001" y="14.75" textLength="1.8000001" style="fill: #363c50;">cli</text>
<text x="28.2" y="14.75" textLength="0.6" style="fill: #443d1d;">=</text>
<text x="29.400002" y="14.75" textLength="1.8000001" style="fill: #572d45; font-weight: 600;">Cli</text>
<text x="31.2" y="14.75" textLength="1.2" style="fill: #4a4a4a;">::</text>
<text x="32.4" y="14.75" textLength="3" style="fill: #2f3d58;">parse</text>
<text x="35.4" y="14.75" textLength="1.8000001" style="fill: #4a4a4a;">();</text>
<text x="62.4" y="14.75" textLength="0.6" style="fill: #363c50;">│</text>
<text x="63.600002" y="14.75" textLength="1.2" style="fill: #565553;">15</text>
<text x="65.4" y="14.75" textLength="13.8" style="fill: #363c50;">palette-gamut-mapping =</text>
<text x="79.8" y="14.75" textLength="4.2000003" style="fill: #2c451e;">"0.1.0"</text>
<text x="2.4" y="15.75" textLength="7.2000003" style="fill: #363c50;"> flake.lock</text>
<text x="18" y="15.75" textLength="0.6" style="fill: #363c50;">│</text>
<text x="19.2" y="15.75" textLength="1.2" style="fill: #565553;">43</text>
<text x="62.4" y="15.75" textLength="0.6" style="fill: #363c50;">│</text>
<text x="63.600002" y="15.75" textLength="1.2" style="fill: #565553;">16</text>
<text x="65.4" y="15.75" textLength="11.400001" style="fill: #363c50;">serde = { version =</text>
<text x="77.4" y="15.75" textLength="1.8000001" style="fill: #2c451e;">"1"</text>
<text x="79.200005" y="15.75" textLength="8.400001" style="fill: #363c50;">, features = [</text>
<text x="87.600006" y="15.75" textLength="4.8" style="fill: #2c451e;">"derive"</text>
<text x="92.4" y="15.75" textLength="1.8000001" style="fill: #363c50;">] }</text>
<text x="2.4" y="16.75" textLength="6.6000004" style="fill: #363c50;"> flake.nix</text>
<text x="18" y="16.75" textLength="0.6" style="fill: #363c50;">│</text>
<text x="19.2" y="16.75" textLength="1.2" style="fill: #565553;">44</text>
<text x="23.400002" y="16.75" textLength="1.8000001" style="fill: #473550;">let</text>
<text x="25.800001" y="16.75" textLength="3.6000001" style="fill: #363c50;">config</text>
<text x="30.000002" y="16.75" textLength="0.6" style="fill: #443d1d;">=</text>
<text x="31.2" y="16.75" textLength="1.2" style="fill: #473550;">if</text>
<text x="33" y="16.75" textLength="1.8000001" style="fill: #473550;">let</text>
<text x="35.4" y="16.75" textLength="2.4" style="fill: #572d45; font-weight: 600;">Some</text>
<text x="37.800003" y="16.75" textLength="0.6" style="fill: #4a4a4a;">(</text>
<text x="38.4" y="16.75" textLength="2.4" style="fill: #363c50;">file</text>
<text x="40.800003" y="16.75" textLength="0.6" style="fill: #4a4a4a;">)</text>
<text x="42" y="16.75" textLength="0.6" style="fill: #443d1d;">=</text>
<text x="43.2" y="16.75" textLength="1.8000001" style="fill: #363c50;">cli</text>
<text x="45" y="16.75" textLength="0.6" style="fill: #4a4a4a;">.</text>
<text x="45.600002" y="16.75" textLength="2.4" style="fill: #363c50;">file</text>
<text x="48.600002" y="16.75" textLength="0.6" style="fill: #4a4a4a;">{</text>
<text x="62.4" y="16.75" textLength="0.6" style="fill: #363c50;">│</text>
<text x="63.600002" y="16.75" textLength="1.2" style="fill: #565553;">17</text>
<text x="65.4" y="16.75" textLength="6.6000004" style="fill: #363c50;">thiserror =</text>
<text x="72.600006" y="16.75" textLength="1.8000001" style="fill: #2c451e;">"1"</text>
<text x="2.4" y="17.75" textLength="7.8" style="fill: #363c50;"> highlow.lua</text>
<text x="18" y="17.75" textLength="0.6" style="fill: #363c50;">│</text>
<text x="19.2" y="17.75" textLength="1.2" style="fill: #565553;">45</text>
<text x="25.800001" y="17.75" textLength="1.8000001" style="fill: #473d07; font-weight: 600;">std</text>
<text x="27.6" y="17.75" textLength="1.2" style="fill: #4a4a4a;">::</text>
<text x="28.800001" y="17.75" textLength="1.2" style="fill: #473d07; font-weight: 600;">fs</text>
<text x="30.000002" y="17.75" textLength="1.2" style="fill: #4a4a4a;">::</text>
<text x="31.2" y="17.75" textLength="8.400001" style="fill: #2f3d58;">read_to_string</text>
<text x="39.600002" y="17.75" textLength="0.6" style="fill: #4a4a4a;">(</text>
<text x="40.2" y="17.75" textLength="2.4" style="fill: #363c50;">file</text>
<text x="42.600002" y="17.75" textLength="0.6" style="fill: #4a4a4a;">)</text>
<text x="43.2" y="17.75" textLength="0.6" style="fill: #443d1d;">?</text>
<text x="62.4" y="17.75" textLength="0.6" style="fill: #363c50;">│</text>
<text x="63.600002" y="17.75" textLength="1.2" style="fill: #565553;">18</text>
<text x="65.4" y="17.75" textLength="3.6000001" style="fill: #363c50;">toml =</text>
<text x="69.600006" y="17.75" textLength="3" style="fill: #2c451e;">"0.5"</text>
<text x="2.4" y="18.75" textLength="9.6" style="fill: #363c50;"> LICENSE-APACHE</text>
<text x="18" y="18.75" textLength="0.6" style="fill: #363c50;">│</text>
<text x="19.2" y="18.75" textLength="1.2" style="fill: #565553;">46</text>
<text x="23.400002" y="18.75" textLength="0.6" style="fill: #4a4a4a;">}</text>
<text x="24.6" y="18.75" textLength="2.4" style="fill: #473550;">else</text>
<text x="27.6" y="18.75" textLength="0.6" style="fill: #4a4a4a;">{</text>
<text x="62.4" y="18.75" textLength="0.6" style="fill: #363c50;">│</text>
<text x="63.600002" y="18.75" textLength="1.2" style="fill: #565553;">19</text>
<text x="2.4" y="19.75" textLength="7.8" style="fill: #363c50;"> LICENSE-MIT</text>
<text x="18" y="19.75" textLength="0.6" style="fill: #363c50;">│</text>
<text x="19.2" y="19.75" textLength="1.2" style="fill: #565553;">47</text>
<text x="25.800001" y="19.75" textLength="1.8000001" style="fill: #473550;">let</text>
<text x="28.2" y="19.75" textLength="1.8000001" style="fill: #473550;">mut</text>
<text x="30.6" y="19.75" textLength="3.6000001" style="fill: #363c50;">config</text>
<text x="34.800003" y="19.75" textLength="0.6" style="fill: #443d1d;">=</text>
<text x="36" y="19.75" textLength="3.6000001" style="fill: #572d45; font-weight: 600;">String</text>
<text x="39.600002" y="19.75" textLength="1.2" style="fill: #4a4a4a;">::</text>
<text x="40.800003" y="19.75" textLength="7.8" style="fill: #2f3d58;">with_capacity</text>
<text x="48.600002" y="19.75" textLength="0.6" style="fill: #4a4a4a;">(</text>
<text x="49.2" y="19.75" textLength="3.6000001" style="fill: #573410;">16_384</text>
<text x="53.4" y="19.75" textLength="7.2000003" style="fill: #3d3d3d; font-style: italic;">/* 16 KiB */</text>
<text x="60.600002" y="19.75" textLength="1.2" style="fill: #4a4a4a;">);</text>
<text x="62.4" y="19.75" textLength="0.6" style="fill: #363c50;">│</text>
<text x="63.600002" y="19.75" textLength="1.2" style="fill: #565553;">20</text>
<text x="65.4" y="19.75" textLength="12" style="fill: #2f3d58; font-weight: 600;">[build-dependencies]</text>
<text x="2.4" y="20.75" textLength="0.6" style="fill: #363c50;"></text>
<text x="3.6000001" y="20.75" textLength="5.4" style="fill: #2f3d58; font-weight: 600;">README.md</text>
<text x="18" y="20.75" textLength="0.6" style="fill: #363c50;">│</text>
<text x="19.2" y="20.75" textLength="1.2" style="fill: #565553;">48</text>
<text x="25.800001" y="20.75" textLength="1.8000001" style="fill: #473d07; font-weight: 600;">std</text>
<text x="27.6" y="20.75" textLength="1.2" style="fill: #4a4a4a;">::</text>
<text x="28.800001" y="20.75" textLength="1.2" style="fill: #473d07; font-weight: 600;">io</text>
<text x="30.000002" y="20.75" textLength="1.2" style="fill: #4a4a4a;">::</text>
<text x="31.2" y="20.75" textLength="3" style="fill: #2f3d58;">stdin</text>
<text x="34.2" y="20.75" textLength="1.8000001" style="fill: #4a4a4a;">().</text>
<text x="36" y="20.75" textLength="8.400001" style="fill: #2f3d58;">read_to_string</text>
<text x="44.4" y="20.75" textLength="0.6" style="fill: #4a4a4a;">(</text>
<text x="45" y="20.75" textLength="0.6" style="fill: #443d1d;">&amp;</text>
<text x="45.600002" y="20.75" textLength="1.8000001" style="fill: #473550;">mut</text>
<text x="48" y="20.75" textLength="3.6000001" style="fill: #363c50;">config</text>
<text x="51.600002" y="20.75" textLength="1.2" style="fill: #4a4a4a;">).</text>
<text x="52.800003" y="20.75" textLength="3.6000001" style="fill: #2f3d58;">unwrap</text>
<text x="56.4" y="20.75" textLength="1.8000001" style="fill: #4a4a4a;">();</text>
<text x="62.4" y="20.75" textLength="0.6" style="fill: #363c50;">│</text>
<text x="63.600002" y="20.75" textLength="1.2" style="fill: #565553;">21</text>
<text x="65.4" y="20.75" textLength="4.8" style="fill: #363c50;">anyhow =</text>
<text x="70.8" y="20.75" textLength="1.8000001" style="fill: #2c451e;">"1"</text>
<text x="2.4" y="21.75" textLength="10.8" style="fill: #363c50;"> release-plz.toml</text>
<text x="18" y="21.75" textLength="0.6" style="fill: #363c50;">│</text>
<text x="19.2" y="21.75" textLength="1.2" style="fill: #565553;">49</text>
<text x="25.800001" y="21.75" textLength="3.6000001" style="fill: #363c50;">config</text>
<text x="62.4" y="21.75" textLength="0.6" style="fill: #363c50;">│</text>
<text x="63.600002" y="21.75" textLength="1.2" style="fill: #565553;">22</text>
<text x="65.4" y="21.75" textLength="11.400001" style="fill: #363c50;">serde = { version =</text>
<text x="77.4" y="21.75" textLength="1.8000001" style="fill: #2c451e;">"1"</text>
<text x="79.200005" y="21.75" textLength="8.400001" style="fill: #363c50;">, features = [</text>
<text x="87.600006" y="21.75" textLength="4.8" style="fill: #2c451e;">"derive"</text>
<text x="92.4" y="21.75" textLength="1.8000001" style="fill: #363c50;">] }</text>
<text x="2.4" y="22.75" textLength="8.400001" style="fill: #363c50;"> rustfmt.toml</text>
<text x="18" y="22.75" textLength="0.6" style="fill: #363c50;">│</text>
<text x="19.2" y="22.75" textLength="1.2" style="fill: #565553;">50</text>
<text x="23.400002" y="22.75" textLength="1.2" style="fill: #4a4a4a;">};</text>
<text x="62.4" y="22.75" textLength="0.6" style="fill: #363c50;">│</text>
<text x="63.600002" y="22.75" textLength="1.2" style="fill: #565553;">23</text>
<text x="65.4" y="22.75" textLength="10.8" style="fill: #363c50;">toml = { version =</text>
<text x="76.8" y="22.75" textLength="3" style="fill: #2c451e;">"0.8"</text>
<text x="80.4" y="22.75" textLength="0.6" style="fill: #363c50;">}</text>
<text x="0" y="23.75" textLength="0.6" style="fill: #565553;">~</text>
<text x="18" y="23.75" textLength="0.6" style="fill: #363c50;">│</text>
<text x="19.2" y="23.75" textLength="1.2" style="fill: #565553;">51</text>
<text x="62.4" y="23.75" textLength="0.6" style="fill: #363c50;">│</text>
<text x="63.600002" y="23.75" textLength="1.2" style="fill: #565553;">24</text>
<text x="0" y="24.75" textLength="0.6" style="fill: #565553;">~</text>
<text x="18" y="24.75" textLength="0.6" style="fill: #363c50;">│</text>
<text x="19.2" y="24.75" textLength="1.2" style="fill: #565553;">52</text>
<text x="23.400002" y="24.75" textLength="1.8000001" style="fill: #473550;">let</text>
<text x="25.800001" y="24.75" textLength="6.6000004" style="fill: #363c50;">colorscheme</text>
<text x="33" y="24.75" textLength="0.6" style="fill: #443d1d;">=</text>
<text x="34.2" y="24.75" textLength="6.6000004" style="fill: #473d07; font-weight: 600;">colorscheme</text>
<text x="40.800003" y="24.75" textLength="1.2" style="fill: #4a4a4a;">::</text>
<text x="42" y="24.75" textLength="3" style="fill: #2f3d58;">parse</text>
<text x="45" y="24.75" textLength="0.6" style="fill: #4a4a4a;">(</text>
<text x="45.600002" y="24.75" textLength="0.6" style="fill: #443d1d;">&amp;</text>
<text x="46.2" y="24.75" textLength="3.6000001" style="fill: #363c50;">config</text>
<text x="49.800003" y="24.75" textLength="0.6" style="fill: #4a4a4a;">)</text>
<text x="50.4" y="24.75" textLength="0.6" style="fill: #443d1d;">?</text>
<text x="51.000004" y="24.75" textLength="0.6" style="fill: #4a4a4a;">;</text>
<text x="62.4" y="24.75" textLength="0.6" style="fill: #363c50;">│</text>
<text x="63.600002" y="24.75" textLength="1.2" style="fill: #565553;">25</text>
<text x="65.4" y="24.75" textLength="6.6000004" style="fill: #2f3d58; font-weight: 600;">[workspace]</text>
<text x="0" y="25.75" textLength="0.6" style="fill: #565553;">~</text>
<text x="18" y="25.75" textLength="0.6" style="fill: #363c50;">│</text>
<text x="19.2" y="25.75" textLength="1.2" style="fill: #565553;">53</text>
<text x="62.4" y="25.75" textLength="0.6" style="fill: #363c50;">│</text>
<text x="63.600002" y="25.75" textLength="1.2" style="fill: #565553;">26</text>
<text x="65.4" y="25.75" textLength="6.6000004" style="fill: #363c50;">members = [</text>
<text x="0" y="26.75" textLength="0.6" style="fill: #565553;">~</text>
<text x="18" y="26.75" textLength="0.6" style="fill: #363c50;">│</text>
<text x="19.2" y="26.75" textLength="1.2" style="fill: #565553;">54</text>
<text x="23.400002" y="26.75" textLength="1.8000001" style="fill: #473550;">let</text>
<text x="25.800001" y="26.75" textLength="4.2000003" style="fill: #363c50;">program</text>
<text x="30.6" y="26.75" textLength="0.6" style="fill: #443d1d;">=</text>
<text x="31.800001" y="26.75" textLength="3" style="fill: #473550;">match</text>
<text x="35.4" y="26.75" textLength="1.8000001" style="fill: #363c50;">cli</text>
<text x="37.2" y="26.75" textLength="0.6" style="fill: #4a4a4a;">.</text>
<text x="37.800003" y="26.75" textLength="3.6000001" style="fill: #363c50;">target</text>
<text x="42" y="26.75" textLength="0.6" style="fill: #4a4a4a;">{</text>
<text x="62.4" y="26.75" textLength="0.6" style="fill: #363c50;">│</text>
<text x="63.600002" y="26.75" textLength="1.2" style="fill: #565553;">27</text>
<text x="67.8" y="26.75" textLength="9.6" style="fill: #2c451e;">"hi-nvim-rs-web"</text>
<text x="77.4" y="26.75" textLength="0.6" style="fill: #363c50;">,</text>
<text x="0" y="27.75" textLength="0.6" style="fill: #565553;">~</text>
<text x="18" y="27.75" textLength="0.6" style="fill: #363c50;">│</text>
<text x="19.2" y="27.75" textLength="1.2" style="fill: #565553;">55</text>
<text x="25.800001" y="27.75" textLength="3.6000001" style="fill: #572d45; font-weight: 600;">Target</text>
<text x="29.400002" y="27.75" textLength="1.2" style="fill: #4a4a4a;">::</text>
<text x="30.6" y="27.75" textLength="3.6000001" style="fill: #283c62; font-weight: 600;">Neovim</text>
<text x="34.800003" y="27.75" textLength="1.2" style="fill: #4a4a4a;">=></text>
<text x="36.600002" y="27.75" textLength="9" style="fill: #473d07; font-weight: 600;">compiler_neovim</text>
<text x="45.600002" y="27.75" textLength="1.2" style="fill: #4a4a4a;">::</text>
<text x="46.800003" y="27.75" textLength="4.2000003" style="fill: #2f3d58;">compile</text>
<text x="51.000004" y="27.75" textLength="0.6" style="fill: #4a4a4a;">(</text>
<text x="51.600002" y="27.75" textLength="0.6" style="fill: #443d1d;">&amp;</text>
<text x="52.2" y="27.75" textLength="6.6000004" style="fill: #363c50;">colorscheme</text>
<text x="58.800003" y="27.75" textLength="0.6" style="fill: #4a4a4a;">)</text>
<text x="59.4" y="27.75" textLength="0.6" style="fill: #443d1d;">?</text>
<text x="60.000004" y="27.75" textLength="0.6" style="fill: #4a4a4a;">,</text>
<text x="62.4" y="27.75" textLength="0.6" style="fill: #363c50;">│</text>
<text x="63.600002" y="27.75" textLength="1.2" style="fill: #565553;">28</text>
<text x="67.8" y="27.75" textLength="13.8" style="fill: #2c451e;">"hi-nvim-rs-web-styler"</text>
<text x="81.600006" y="27.75" textLength="0.6" style="fill: #363c50;">,</text>
<text x="0" y="28.75" textLength="0.6" style="fill: #565553;">~</text>
<text x="18" y="28.75" textLength="0.6" style="fill: #363c50;">│</text>
<text x="19.2" y="28.75" textLength="1.2" style="fill: #565553;">56</text>
<text x="25.800001" y="28.75" textLength="3.6000001" style="fill: #572d45; font-weight: 600;">Target</text>
<text x="29.400002" y="28.75" textLength="1.2" style="fill: #4a4a4a;">::</text>
<text x="30.6" y="28.75" textLength="1.8000001" style="fill: #283c62; font-weight: 600;">Vim</text>
<text x="33" y="28.75" textLength="1.2" style="fill: #4a4a4a;">=></text>
<text x="34.800003" y="28.75" textLength="7.2000003" style="fill: #473d07; font-weight: 600;">compiler_vim</text>
<text x="42" y="28.75" textLength="1.2" style="fill: #4a4a4a;">::</text>
<text x="43.2" y="28.75" textLength="4.2000003" style="fill: #2f3d58;">compile</text>
<text x="47.4" y="28.75" textLength="0.6" style="fill: #4a4a4a;">(</text>
<text x="48" y="28.75" textLength="0.6" style="fill: #443d1d;">&amp;</text>
<text x="48.600002" y="28.75" textLength="6.6000004" style="fill: #363c50;">colorscheme</text>
<text x="55.2" y="28.75" textLength="0.6" style="fill: #4a4a4a;">)</text>
<text x="55.800003" y="28.75" textLength="0.6" style="fill: #443d1d;">?</text>
<text x="56.4" y="28.75" textLength="0.6" style="fill: #4a4a4a;">,</text>
<text x="62.4" y="28.75" textLength="0.6" style="fill: #363c50;">│</text>
<text x="63.600002" y="28.75" textLength="1.2" style="fill: #565553;">29</text>
<text x="65.4" y="28.75" textLength="0.6" style="fill: #363c50;">]</text>
<text x="0" y="29.75" textLength="0.6" style="fill: #565553;">~</text>
<text x="18" y="29.75" textLength="0.6" style="fill: #363c50;">│</text>
<text x="19.2" y="29.75" textLength="1.2" style="fill: #565553;">57</text>
<text x="23.400002" y="29.75" textLength="1.2" style="fill: #4a4a4a;">};</text>
<text x="62.4" y="29.75" textLength="0.6" style="fill: #363c50;">│</text>
<text x="63.000004" y="29.75" textLength="0.6" style="fill: #565553;">~</text>
<text x="0" y="30.75" textLength="0.6" style="fill: #565553;">~</text>
<text x="18" y="30.75" textLength="0.6" style="fill: #363c50;">│</text>
<text x="19.2" y="30.75" textLength="1.2" style="fill: #565553;">58</text>
<text x="62.4" y="30.75" textLength="0.6" style="fill: #363c50;">│</text>
<text x="63.000004" y="30.75" textLength="0.6" style="fill: #565553;">~</text>
<text x="0" y="31.75" textLength="0.6" style="fill: #565553;">~</text>
<text x="18" y="31.75" textLength="0.6" style="fill: #363c50;">│</text>
<text x="19.2" y="31.75" textLength="1.2" style="fill: #565553;">59</text>
<text x="23.400002" y="31.75" textLength="4.8" style="fill: #283c62;">println!</text>
<text x="28.2" y="31.75" textLength="0.6" style="fill: #4a4a4a;">(</text>
<text x="28.800001" y="31.75" textLength="2.4" style="fill: #2c451e;">"{}"</text>
<text x="31.2" y="31.75" textLength="0.6" style="fill: #4a4a4a;">,</text>
<text x="32.4" y="31.75" textLength="0.6" style="fill: #443d1d;">&amp;</text>
<text x="33" y="31.75" textLength="4.2000003" style="fill: #363c50;">program</text>
<text x="37.2" y="31.75" textLength="1.2" style="fill: #4a4a4a;">);</text>
<text x="62.4" y="31.75" textLength="0.6" style="fill: #363c50;">│</text>
<text x="63.000004" y="31.75" textLength="0.6" style="fill: #565553;">~</text>
<text x="0" y="32.75" textLength="0.6" style="fill: #565553;">~</text>
<text x="18" y="32.75" textLength="0.6" style="fill: #363c50;">│</text>
<text x="19.2" y="32.75" textLength="1.2" style="fill: #565553;">60</text>
<text x="23.400002" y="32.75" textLength="1.8000001" style="fill: #473d07; font-weight: 600;">std</text>
<text x="25.2" y="32.75" textLength="1.2" style="fill: #4a4a4a;">::</text>
<text x="26.400002" y="32.75" textLength="1.2" style="fill: #473d07; font-weight: 600;">fs</text>
<text x="27.6" y="32.75" textLength="1.2" style="fill: #4a4a4a;">::</text>
<text x="28.800001" y="32.75" textLength="3" style="fill: #2f3d58;">write</text>
<text x="31.800001" y="32.75" textLength="0.6" style="fill: #4a4a4a;">(</text>
<text x="32.4" y="32.75" textLength="7.8" style="fill: #2c451e;">"highlow.lua"</text>
<text x="40.2" y="32.75" textLength="0.6" style="fill: #4a4a4a;">,</text>
<text x="41.4" y="32.75" textLength="0.6" style="fill: #443d1d;">&amp;</text>
<text x="42" y="32.75" textLength="4.2000003" style="fill: #363c50;">program</text>
<text x="46.2" y="32.75" textLength="1.2" style="fill: #4a4a4a;">).</text>
<text x="47.4" y="32.75" textLength="3.6000001" style="fill: #2f3d58;">unwrap</text>
<text x="51.000004" y="32.75" textLength="1.8000001" style="fill: #4a4a4a;">();</text>
<text x="62.4" y="32.75" textLength="0.6" style="fill: #363c50;">│</text>
<text x="63.000004" y="32.75" textLength="0.6" style="fill: #565553;">~</text>
<text x="0" y="33.75" textLength="0.6" style="fill: #565553;">~</text>
<text x="18" y="33.75" textLength="0.6" style="fill: #363c50;">│</text>
<text x="19.2" y="33.75" textLength="1.2" style="fill: #565553;">61</text>
<text x="62.4" y="33.75" textLength="0.6" style="fill: #363c50;">│</text>
<text x="63.000004" y="33.75" textLength="0.6" style="fill: #565553;">~</text>
<text x="0" y="34.75" textLength="0.6" style="fill: #565553;">~</text>
<text x="18" y="34.75" textLength="0.6" style="fill: #363c50;">│</text>
<text x="19.2" y="34.75" textLength="1.2" style="fill: #565553;">62</text>
<text x="23.400002" y="34.75" textLength="1.2" style="fill: #2f3d58; font-weight: 600;">Ok</text>
<text x="24.6" y="34.75" textLength="2.4" style="fill: #4a4a4a;">(())</text>
<text x="62.4" y="34.75" textLength="0.6" style="fill: #363c50;">│</text>
<text x="63.000004" y="34.75" textLength="0.6" style="fill: #565553;">~</text>
<text x="0" y="35.75" textLength="0.6" style="fill: #565553;">~</text>
<text x="18" y="35.75" textLength="0.6" style="fill: #363c50;">│</text>
<text x="19.2" y="35.75" textLength="1.2" style="fill: #565553;">63</text>
<text x="21" y="35.75" textLength="0.6" style="fill: #4a4a4a;">}</text>
<text x="62.4" y="35.75" textLength="0.6" style="fill: #363c50;">│</text>
<text x="63.000004" y="35.75" textLength="0.6" style="fill: #565553;">~</text>
<text x="0" y="36.75" textLength="0.6" style="fill: #565553;">~</text>
<text x="18" y="36.75" textLength="0.6" style="fill: #363c50;">│</text>
<text x="18.6" y="36.75" textLength="0.6" style="fill: #565553;">~</text>
<text x="62.4" y="36.75" textLength="0.6" style="fill: #363c50;">│</text>
<text x="63.000004" y="36.75" textLength="0.6" style="fill: #565553;">~</text>
<text x="0" y="37.75" textLength="0.6" style="fill: #565553;">~</text>
<text x="18" y="37.75" textLength="0.6" style="fill: #363c50;">│</text>
<text x="18.6" y="37.75" textLength="43.800003" style="fill: #f5ede3;">./src/main.rs &#160;&#160;&#160;&#160;&#160;&#160;&#160;&#160;&#160;&#160;&#160;&#160;&#160;&#160;&#160;&#160;&#160;&#160;&#160;&#160;&#160;&#160;&#160;&#160;&#160;&#160;&#160;&#160;&#160;&#160;&#160;&#160;&#160;&#160;&#160;&#160;&#160;&#160;&#160;&#160;&#160;41,1 &#160;&#160;&#160;&#160;&#160;&#160;&#160;&#160;&#160;&#160;Bot</text>
<text x="63.000004" y="37.75" textLength="33" style="fill: #e2ddd6;">./Cargo.toml &#160;&#160;&#160;&#160;&#160;&#160;&#160;&#160;&#160;&#160;&#160;&#160;&#160;&#160;&#160;&#160;&#160;&#160;&#160;&#160;&#160;&#160;&#160;&#160;1,1 &#160;&#160;&#160;&#160;&#160;&#160;&#160;&#160;&#160;&#160;&#160;All</text>
<text x="0" y="38.75" textLength="0.6" style="fill: #565553;">~</text>
<text x="18" y="38.75" textLength="0.6" style="fill: #363c50;">│</text>
<text x="21.6" y="38.75" textLength="1.2" style="fill: #363c50;">├╴</text>
<text x="22.800001" y="38.75" textLength="0.6" style="fill: #473d07; font-weight: 600;"></text>
<text x="24.6" y="38.75" textLength="10.8" style="fill: #31374a;">default_highlights</text>
<text x="36" y="38.75" textLength="11.400001" style="fill: #3d3d3d; font-style: italic;">default_highlights;</text>
<text x="48" y="38.75" textLength="4.2000003" style="fill: #40204f;">[11, 9]</text>
<text x="0" y="39.75" textLength="0.6" style="fill: #565553;">~</text>
<text x="18" y="39.75" textLength="0.6" style="fill: #363c50;">│</text>
<text x="21.6" y="39.75" textLength="1.2" style="fill: #363c50;">├╴</text>
<text x="22.800001" y="39.75" textLength="0.6" style="fill: #473d07; font-weight: 600;"></text>
<text x="24.6" y="39.75" textLength="3" style="fill: #31374a;">error</text>
<text x="28.2" y="39.75" textLength="3.6000001" style="fill: #3d3d3d; font-style: italic;">error;</text>
<text x="32.4" y="39.75" textLength="4.8" style="fill: #40204f;">[12, 16]</text>
<text x="0" y="40.75" textLength="0.6" style="fill: #565553;">~</text>
<text x="18" y="40.75" textLength="0.6" style="fill: #363c50;">│</text>
<text x="21.6" y="40.75" textLength="1.2" style="fill: #363c50;">├╴</text>
<text x="22.800001" y="40.75" textLength="0.6" style="fill: #473d07; font-weight: 600;"></text>
<text x="24.6" y="40.75" textLength="5.4" style="fill: #31374a;">modifiers</text>
<text x="30.6" y="40.75" textLength="6" style="fill: #3d3d3d; font-style: italic;">modifiers;</text>
<text x="37.2" y="40.75" textLength="4.8" style="fill: #40204f;">[13, 16]</text>
<text x="0" y="41.75" textLength="0.6" style="fill: #565553;">~</text>
<text x="18" y="41.75" textLength="0.6" style="fill: #363c50;">│</text>
<text x="21.6" y="41.75" textLength="1.2" style="fill: #363c50;">├╴</text>
<text x="22.800001" y="41.75" textLength="0.6" style="fill: #572d45; font-weight: 600;"></text>
<text x="24.6" y="41.75" textLength="3.6000001" style="fill: #31374a;">Target</text>
<text x="28.800001" y="41.75" textLength="4.8" style="fill: #3d3d3d; font-style: italic;">Target {</text>
<text x="34.2" y="41.75" textLength="4.2000003" style="fill: #40204f;">[18, 6]</text>
<text x="0" y="42.75" textLength="0.6" style="fill: #565553;">~</text>
<text x="18" y="42.75" textLength="0.6" style="fill: #363c50;">│</text>
<text x="21.6" y="42.75" textLength="2.4" style="fill: #363c50;">│ ├╴</text>
<text x="24" y="42.75" textLength="0.6" style="fill: #283c62;"></text>
<text x="25.800001" y="42.75" textLength="3.6000001" style="fill: #31374a;">Neovim</text>
<text x="30.000002" y="42.75" textLength="4.2000003" style="fill: #3d3d3d; font-style: italic;">Neovim,</text>
<text x="34.800003" y="42.75" textLength="4.2000003" style="fill: #40204f;">[19, 5]</text>
<text x="0" y="43.75" textLength="0.6" style="fill: #565553;">~</text>
<text x="18" y="43.75" textLength="0.6" style="fill: #363c50;">│</text>
<text x="21.6" y="43.75" textLength="2.4" style="fill: #363c50;">│ └╴</text>
<text x="24" y="43.75" textLength="0.6" style="fill: #283c62;"></text>
<text x="25.800001" y="43.75" textLength="1.8000001" style="fill: #31374a;">Vim</text>
<text x="28.2" y="43.75" textLength="2.4" style="fill: #3d3d3d; font-style: italic;">Vim,</text>
<text x="31.2" y="43.75" textLength="4.2000003" style="fill: #40204f;">[20, 5]</text>
<text x="0" y="44.75" textLength="0.6" style="fill: #565553;">~</text>
<text x="18" y="44.75" textLength="0.6" style="fill: #363c50;">│</text>
<text x="21.6" y="44.75" textLength="1.2" style="fill: #363c50;">├╴</text>
<text x="22.800001" y="44.75" textLength="0.6" style="fill: #572d45; font-weight: 600;">󰆼</text>
<text x="24.6" y="44.75" textLength="1.8000001" style="fill: #31374a;">Cli</text>
<text x="27.000002" y="44.75" textLength="3" style="fill: #3d3d3d; font-style: italic;">Cli {</text>
<text x="30.6" y="44.75" textLength="4.2000003" style="fill: #40204f;">[28, 8]</text>
<text x="0" y="45.75" textLength="0.6" style="fill: #565553;">~</text>
<text x="18" y="45.75" textLength="0.6" style="fill: #363c50;">│</text>
<text x="21.6" y="45.75" textLength="2.4" style="fill: #363c50;">│ ├╴</text>
<text x="24" y="45.75" textLength="5.4" style="fill: #31374a;"> &#160;target</text>
<text x="30.000002" y="45.75" textLength="9" style="fill: #3d3d3d; font-style: italic;">target: Target,</text>
<text x="39.600002" y="45.75" textLength="4.2000003" style="fill: #40204f;">[33, 5]</text>
<text x="0" y="46.75" textLength="0.6" style="fill: #565553;">~</text>
<text x="18" y="46.75" textLength="0.6" style="fill: #363c50;">│</text>
<text x="21.6" y="46.75" textLength="2.4" style="fill: #363c50;">│ └╴</text>
<text x="24" y="46.75" textLength="4.2000003" style="fill: #31374a;"> &#160;file</text>
<text x="28.800001" y="46.75" textLength="13.200001" style="fill: #3d3d3d; font-style: italic;">file: Option&lt;PathBuf>,</text>
<text x="42.600002" y="46.75" textLength="4.2000003" style="fill: #40204f;">[38, 5]</text>
<text x="0" y="47.75" textLength="0.6" style="fill: #565553;">~</text>
<text x="18" y="47.75" textLength="0.6" style="fill: #363c50;">│</text>
<text x="21.6" y="47.75" textLength="1.2" style="fill: #363c50;">└╴</text>
<text x="22.800001" y="47.75" textLength="0.6" style="fill: #2f3d58;">󰊕</text>
<text x="24.6" y="47.75" textLength="2.4" style="fill: #31374a;">main</text>
<text x="27.6" y="47.75" textLength="18" style="fill: #3d3d3d; font-style: italic;">main() -> anyhow::Result&lt;()> {</text>
<text x="46.2" y="47.75" textLength="4.2000003" style="fill: #40204f;">[41, 4]</text>
<text x="0" y="48.75" textLength="96" style="fill: #e2ddd6;">NvimTree_1 &#160;&#160;&#160;&#160;1,1 &#160;&#160;&#160;&#160;&#160;&#160;&#160;&#160;All [Scratch] &#160;&#160;&#160;&#160;&#160;&#160;&#160;&#160;&#160;&#160;&#160;&#160;&#160;&#160;&#160;&#160;&#160;&#160;&#160;&#160;&#160;&#160;&#160;&#160;&#160;&#160;&#160;&#160;&#160;&#160;&#160;&#160;&#160;&#160;&#160;&#160;&#160;&#160;&#160;&#160;&#160;&#160;&#160;&#160;&#160;&#160;&#160;&#160;&#160;&#160;&#160;&#160;&#160;&#160;&#160;&#160;&#160;&#160;&#160;&#160;&#160;&#160;&#160;&#160;&#160;&#160;&#160;&#160;&#160;&#160;&#160;&#160;&#160;&#160;&#160;&#160;&#160;&#160;&#160;&#160;&#160;&#160;&#160;&#160;&#160;&#160;&#160;&#160;&#160;&#160;&#160;&#160;&#160;&#160;&#160;&#160;&#160;&#160;&#160;&#160;&#160;17,2 &#160;&#160;&#160;&#160;&#160;&#160;&#160;&#160;&#160;&#160;Bot</text>
<text x="0" y="49.75" textLength="1.8000001" style="fill: #474c5e;">/fn</text>
<text x="2.4" y="49.75" textLength="2.4" style="fill: #474c5e;">main</text>
<text x="85.200005" y="49.75" textLength="3" style="fill: #474c5e;">[1/1]</text>

</g>
</svg>
