<svg viewBox="0 0 417.6 288" xmlns="http://www.w3.org/2000/svg">
<style>
  .screen {
    font-family: "ui-monospace", "Liberation Mono", "Consolas", "Menlo", "Source Code Pro", monospace;
    font-size: 12px;
  }
</style>
<g class="screen">
<rect x="0" y="0" width="417.6" height="288" style="fill: #fff3e8;" />
<rect x="0" y="0" width="28.800001" height="14.400001" style="fill: #f8e0ca;" />
<rect x="0" y="14.400001" width="28.800001" height="14.400001" style="fill: #f8e0ca;" />
<rect x="0" y="28.800001" width="28.800001" height="14.400001" style="fill: #f8e0ca;" />
<rect x="0" y="43.2" width="28.800001" height="14.400001" style="fill: #f8e0ca;" />
<rect x="0" y="57.600002" width="28.800001" height="14.400001" style="fill: #f8e0ca;" />
<rect x="0" y="72" width="28.800001" height="14.400001" style="fill: #f8e0ca;" />
<rect x="0" y="86.4" width="28.800001" height="14.400001" style="fill: #f8e0ca;" />
<rect x="0" y="100.8" width="28.800001" height="14.400001" style="fill: #f8e0ca;" />
<rect x="0" y="115.200005" width="28.800001" height="14.400001" style="fill: #f8e0ca;" />
<rect x="0" y="129.6" width="28.800001" height="14.400001" style="fill: #f8e0ca;" />
<rect x="0" y="144" width="28.800001" height="14.400001" style="fill: #f8e0ca;" />
<rect x="0" y="158.40001" width="28.800001" height="14.400001" style="fill: #f8e0ca;" />
<rect x="28.800001" y="158.40001" width="122.4" height="14.400001" style="fill: #d0ad8d;" />
<rect x="0" y="172.8" width="28.800001" height="14.400001" style="fill: #f8e0ca;" />
<rect x="28.800001" y="172.8" width="194.40001" height="14.400001" style="fill: #d0ad8d;" />
<rect x="0" y="187.20001" width="28.800001" height="14.400001" style="fill: #f8e0ca;" />
<rect x="28.800001" y="187.20001" width="360" height="14.400001" style="fill: #d0ad8d;" />
<rect x="0" y="201.6" width="28.800001" height="14.400001" style="fill: #f8e0ca;" />
<rect x="0" y="216.00002" width="28.800001" height="14.400001" style="fill: #f8e0ca;" />
<rect x="0" y="230.40001" width="28.800001" height="14.400001" style="fill: #f8e0ca;" />
<rect x="0" y="259.2" width="417.6" height="14.400001" style="fill: #f8e0ca;" />
<text x="14.400001" y="10.8" textLength="7.2000003" style="fill: #97897d;">1</text>
<text x="28.800001" y="10.8" textLength="129.6" style="fill: #6a6560; font-style: italic;">//! Calculate A+B.</text>
<text x="14.400001" y="25.2" textLength="7.2000003" style="fill: #97897d;">2</text>
<text x="28.800001" y="25.2" textLength="21.6" style="fill: #6a6560; font-style: italic;">//!</text>
<text x="14.400001" y="39.600002" textLength="7.2000003" style="fill: #97897d;">3</text>
<text x="28.800001" y="39.600002" textLength="302.40002" style="fill: #6a6560; font-style: italic;">//! From: https://rosettacode.org/wiki/A+B</text>
<text x="14.400001" y="54.000004" textLength="7.2000003" style="fill: #97897d;">4</text>
<text x="28.800001" y="54.000004" textLength="21.6" style="fill: #694f38;">use</text>
<text x="57.600002" y="54.000004" textLength="21.6" style="fill: #704c29; font-weight: 600;">std</text>
<text x="79.200005" y="54.000004" textLength="14.400001" style="fill: #4e4945;">::</text>
<text x="93.600006" y="54.000004" textLength="14.400001" style="fill: #3b2d20;">io</text>
<text x="108.00001" y="54.000004" textLength="7.2000003" style="fill: #4e4945;">;</text>
<text x="14.400001" y="68.4" textLength="7.2000003" style="fill: #97897d;">5</text>
<text x="14.400001" y="82.8" textLength="7.2000003" style="fill: #97897d;">6</text>
<text x="28.800001" y="82.8" textLength="14.400001" style="fill: #694f38;">fn</text>
<text x="50.4" y="82.8" textLength="28.800001" style="fill: #694f38;">main</text>
<text x="79.200005" y="82.8" textLength="14.400001" style="fill: #4e4945;">()</text>
<text x="100.8" y="82.8" textLength="7.2000003" style="fill: #4e4945;">{</text>
<text x="14.400001" y="97.200005" textLength="7.2000003" style="fill: #97897d;">7</text>
<text x="57.600002" y="97.200005" textLength="21.6" style="fill: #694f38;">let</text>
<text x="86.4" y="97.200005" textLength="21.6" style="fill: #694f38;">mut</text>
<text x="115.200005" y="97.200005" textLength="28.800001" style="fill: #3b2d20;">line</text>
<text x="151.20001" y="97.200005" textLength="7.2000003" style="fill: #694f38;">=</text>
<text x="165.6" y="97.200005" textLength="43.2" style="fill: #694f38; font-weight: 600;">String</text>
<text x="208.8" y="97.200005" textLength="14.400001" style="fill: #4e4945;">::</text>
<text x="223.20001" y="97.200005" textLength="21.6" style="fill: #694f38;">new</text>
<text x="244.8" y="97.200005" textLength="21.6" style="fill: #4e4945;">();</text>
<text x="14.400001" y="111.600006" textLength="7.2000003" style="fill: #97897d;">8</text>
<text x="57.600002" y="111.600006" textLength="14.400001" style="fill: #704c29; font-weight: 600;">io</text>
<text x="72" y="111.600006" textLength="14.400001" style="fill: #4e4945;">::</text>
<text x="86.4" y="111.600006" textLength="36" style="fill: #694f38;">stdin</text>
<text x="122.4" y="111.600006" textLength="21.6" style="fill: #4e4945;">().</text>
<text x="144" y="111.600006" textLength="64.8" style="fill: #694f38;">read_line</text>
<text x="208.8" y="111.600006" textLength="7.2000003" style="fill: #4e4945;">(</text>
<text x="216.00002" y="111.600006" textLength="28.800001" style="fill: #694f38;">&amp;mut</text>
<text x="252.00002" y="111.600006" textLength="28.800001" style="fill: #3b2d20;">line</text>
<text x="280.80002" y="111.600006" textLength="14.400001" style="fill: #4e4945;">).</text>
<text x="295.2" y="111.600006" textLength="43.2" style="fill: #694f38;">expect</text>
<text x="338.40002" y="111.600006" textLength="7.2000003" style="fill: #4e4945;">(</text>
<text x="345.6" y="111.600006" textLength="50.4" style="fill: #525b2b;">"stdin"</text>
<text x="396.00003" y="111.600006" textLength="14.400001" style="fill: #4e4945;">);</text>
<text x="14.400001" y="126.00001" textLength="7.2000003" style="fill: #97897d;">9</text>
<text x="7.2000003" y="140.4" textLength="14.400001" style="fill: #97897d;">10</text>
<text x="57.600002" y="140.4" textLength="21.6" style="fill: #694f38;">let</text>
<text x="86.4" y="140.4" textLength="21.6" style="fill: #694f38;">mut</text>
<text x="115.200005" y="140.4" textLength="7.2000003" style="fill: #3b2d20;">i</text>
<text x="122.4" y="140.4" textLength="7.2000003" style="fill: #4e4945;">:</text>
<text x="136.8" y="140.4" textLength="21.6" style="fill: #704c29;">i64</text>
<text x="165.6" y="140.4" textLength="7.2000003" style="fill: #694f38;">=</text>
<text x="180" y="140.4" textLength="7.2000003" style="fill: #525b2b;">0</text>
<text x="187.20001" y="140.4" textLength="7.2000003" style="fill: #4e4945;">;</text>
<text x="7.2000003" y="154.8" textLength="14.400001" style="fill: #97897d;">11</text>
<text x="57.600002" y="154.8" textLength="21.6" style="fill: #694f38;">for</text>
<text x="86.4" y="154.8" textLength="28.800001" style="fill: #3b2d20;">word</text>
<text x="122.4" y="154.8" textLength="14.400001" style="fill: #694f38;">in</text>
<text x="144" y="154.8" textLength="28.800001" style="fill: #3b2d20;">line</text>
<text x="172.8" y="154.8" textLength="7.2000003" style="fill: #4e4945;">.</text>
<text x="180" y="154.8" textLength="115.200005" style="fill: #694f38;">split_whitespace</text>
<text x="295.2" y="154.8" textLength="14.400001" style="fill: #4e4945;">()</text>
<text x="316.80002" y="154.8" textLength="7.2000003" style="fill: #4e4945;">{</text>
<text x="7.2000003" y="169.2" textLength="14.400001" style="fill: #97897d;">12</text>
<text x="86.4" y="169.2" textLength="7.2000003" style="fill: #3b2d20;">i</text>
<text x="100.8" y="169.2" textLength="14.400001" style="fill: #694f38;">+=</text>
<text x="122.4" y="169.2" textLength="28.800001" style="fill: #3b2d20;">word</text>
<text x="7.2000003" y="183.6" textLength="14.400001" style="fill: #97897d;">13</text>
<text x="115.200005" y="183.6" textLength="7.2000003" style="fill: #4e4945;">.</text>
<text x="122.4" y="183.6" textLength="36" style="fill: #694f38;">parse</text>
<text x="158.40001" y="183.6" textLength="21.6" style="fill: #4e4945;">::&lt;</text>
<text x="180" y="183.6" textLength="21.6" style="fill: #704c29;">i64</text>
<text x="201.6" y="183.6" textLength="21.6" style="fill: #4e4945;">>()</text>
<text x="7.2000003" y="198" textLength="14.400001" style="fill: #97897d;">14</text>
<text x="115.200005" y="198" textLength="7.2000003" style="fill: #4e4945;">.</text>
<text x="122.4" y="198" textLength="43.2" style="fill: #694f38;">expect</text>
<text x="165.6" y="198" textLength="7.2000003" style="fill: #4e4945;">(</text>
<text x="172.8" y="198" textLength="201.6" style="fill: #525b2b;">"interpret input as numbers"</text>
<text x="374.40002" y="198" textLength="14.400001" style="fill: #4e4945;">);</text>
<text x="7.2000003" y="212.40001" textLength="14.400001" style="fill: #97897d;">15</text>
<text x="57.600002" y="212.40001" textLength="7.2000003" style="fill: #4e4945;">}</text>
<text x="7.2000003" y="226.8" textLength="14.400001" style="fill: #97897d;">16</text>
<text x="57.600002" y="226.8" textLength="57.600002" style="fill: #694f38;">println!</text>
<text x="115.200005" y="226.8" textLength="7.2000003" style="fill: #4e4945;">(</text>
<text x="122.4" y="226.8" textLength="28.800001" style="fill: #525b2b;">"{}"</text>
<text x="151.20001" y="226.8" textLength="7.2000003" style="fill: #4e4945;">,</text>
<text x="165.6" y="226.8" textLength="7.2000003" style="fill: #3b2d20;">i</text>
<text x="172.8" y="226.8" textLength="14.400001" style="fill: #4e4945;">);</text>
<text x="7.2000003" y="241.2" textLength="14.400001" style="fill: #97897d;">17</text>
<text x="28.800001" y="241.2" textLength="7.2000003" style="fill: #4e4945;">}</text>
<text x="0" y="255.6" textLength="7.2000003" style="fill: #97897d;">~</text>
<text x="0" y="270" textLength="417.6" style="fill: #3b2d20;">./hi-nvim-rs-web/code-examples/rust.rs &#160;14,51 &#160;&#160;&#160;&#160;&#160;&#160;&#160;&#160;&#160;All</text>
<text x="0" y="284.4" textLength="122.4" style="fill: #6c3900; font-weight: 600;">-- VISUAL LINE --</text>
<text x="338.40002" y="284.4" textLength="7.2000003" style="fill: #4c3e31;">3</text>
</g>
</svg>
