<svg viewBox="0 0 34.800003 20" xmlns="http://www.w3.org/2000/svg">
<style>
  .screen {
    font-family: "ui-monospace", "Consolas", "Liberation Mono", "Source Code Pro", monospace;
    font-size: 1px;
  }
</style>
<g class="screen">
<rect x="0" y="0" width="34.800003" height="20" style="fill: #120904;" />
<rect x="0" y="0" width="2.4" height="1" style="fill: #220e03;" />
<rect x="0" y="1" width="2.4" height="1" style="fill: #220e03;" />
<rect x="0" y="2" width="2.4" height="1" style="fill: #220e03;" />
<rect x="0" y="3" width="2.4" height="1" style="fill: #220e03;" />
<rect x="0" y="4" width="2.4" height="1" style="fill: #220e03;" />
<rect x="0" y="5" width="2.4" height="1" style="fill: #220e03;" />
<rect x="0" y="6" width="2.4" height="1" style="fill: #220e03;" />
<rect x="0" y="7" width="2.4" height="1" style="fill: #220e03;" />
<rect x="0" y="8" width="2.4" height="1" style="fill: #220e03;" />
<rect x="0" y="9" width="2.4" height="1" style="fill: #220e03;" />
<rect x="0" y="10" width="2.4" height="1" style="fill: #220e03;" />
<rect x="0" y="11" width="2.4" height="1" style="fill: #220e03;" />
<rect x="0" y="12" width="2.4" height="1" style="fill: #220e03;" />
<rect x="0" y="13" width="2.4" height="1" style="fill: #220e03;" />
<rect x="0" y="14" width="2.4" height="1" style="fill: #220e03;" />
<rect x="0" y="15" width="2.4" height="1" style="fill: #220e03;" />
<rect x="0" y="16" width="2.4" height="1" style="fill: #220e03;" />
<rect x="0" y="18" width="34.800003" height="1" style="fill: #b3a59c;" />
<text x="1.2" y="0.75" textLength="0.6" style="fill: #7d7069;">1</text>
<text x="2.4" y="0.75" textLength="10.8" style="fill: #b3a59c;">//! Calculate A+B.</text>
<text x="1.2" y="1.75" textLength="0.6" style="fill: #7d7069;">2</text>
<text x="2.4" y="1.75" textLength="1.8000001" style="fill: #b3a59c;">//!</text>
<text x="1.2" y="2.75" textLength="0.6" style="fill: #7d7069;">3</text>
<text x="2.4" y="2.75" textLength="25.2" style="fill: #b3a59c;">//! From: https://rosettacode.org/wiki/A+B</text>
<text x="1.2" y="3.75" textLength="0.6" style="fill: #7d7069;">4</text>
<text x="2.4" y="3.75" textLength="1.8000001" style="fill: #c79e85;">use</text>
<text x="4.8" y="3.75" textLength="1.8000001" style="fill: #d29b7b; font-weight: 600;">std</text>
<text x="6.6000004" y="3.75" textLength="3" style="fill: #b3a59c;">::io;</text>
<text x="1.2" y="4.75" textLength="0.6" style="fill: #7d7069;">5</text>
<text x="1.2" y="5.75" textLength="0.6" style="fill: #7d7069;">6</text>
<text x="2.4" y="5.75" textLength="1.2" style="fill: #c79e85;">fn</text>
<text x="4.2000003" y="5.75" textLength="2.4" style="fill: #c79e85;">main</text>
<text x="6.6000004" y="5.75" textLength="2.4" style="fill: #b3a59c;">() {</text>
<text x="1.2" y="6.75" textLength="0.6" style="fill: #7d7069;">7</text>
<text x="4.8" y="6.75" textLength="1.8000001" style="fill: #c79e85;">let</text>
<text x="7.2000003" y="6.75" textLength="1.8000001" style="fill: #c79e85;">mut</text>
<text x="9.6" y="6.75" textLength="2.4" style="fill: #b3a59c;">line</text>
<text x="12.6" y="6.75" textLength="0.6" style="fill: #c2a08b;">=</text>
<text x="13.8" y="6.75" textLength="3.6000001" style="fill: #d29b7b; font-weight: 600;">String</text>
<text x="17.400002" y="6.75" textLength="1.2" style="fill: #b3a59c;">::</text>
<text x="18.6" y="6.75" textLength="1.8000001" style="fill: #c79e85;">new</text>
<text x="20.400002" y="6.75" textLength="1.8000001" style="fill: #b3a59c;">();</text>
<text x="1.2" y="7.75" textLength="0.6" style="fill: #7d7069;">8</text>
<text x="4.8" y="7.75" textLength="1.2" style="fill: #d29b7b; font-weight: 600;">io</text>
<text x="6" y="7.75" textLength="1.2" style="fill: #b3a59c;">::</text>
<text x="7.2000003" y="7.75" textLength="3" style="fill: #c79e85;">stdin</text>
<text x="10.200001" y="7.75" textLength="1.8000001" style="fill: #b3a59c;">().</text>
<text x="12" y="7.75" textLength="5.4" style="fill: #c79e85;">read_line</text>
<text x="17.400002" y="7.75" textLength="0.6" style="fill: #b3a59c;">(</text>
<text x="18" y="7.75" textLength="0.6" style="fill: #c2a08b;">&amp;</text>
<text x="18.6" y="7.75" textLength="1.8000001" style="fill: #c79e85;">mut</text>
<text x="21" y="7.75" textLength="3.6000001" style="fill: #b3a59c;">line).</text>
<text x="24.6" y="7.75" textLength="3.6000001" style="fill: #c79e85;">expect</text>
<text x="28.2" y="7.75" textLength="0.6" style="fill: #b3a59c;">(</text>
<text x="28.800001" y="7.75" textLength="4.2000003" style="fill: #c2a08b;">"stdin"</text>
<text x="33" y="7.75" textLength="1.2" style="fill: #b3a59c;">);</text>
<text x="1.2" y="8.75" textLength="0.6" style="fill: #7d7069;">9</text>
<text x="0.6" y="9.75" textLength="1.2" style="fill: #7d7069;">10</text>
<text x="4.8" y="9.75" textLength="1.8000001" style="fill: #c79e85;">let</text>
<text x="7.2000003" y="9.75" textLength="1.8000001" style="fill: #c79e85;">mut</text>
<text x="9.6" y="9.75" textLength="1.2" style="fill: #b3a59c;">i:</text>
<text x="11.400001" y="9.75" textLength="1.8000001" style="fill: #c2a08b;">i64</text>
<text x="13.8" y="9.75" textLength="0.6" style="fill: #c2a08b;">=</text>
<text x="15.000001" y="9.75" textLength="0.6" style="fill: #c2a08b;">0</text>
<text x="15.6" y="9.75" textLength="0.6" style="fill: #b3a59c;">;</text>
<text x="0.6" y="10.75" textLength="1.2" style="fill: #7d7069;">11</text>
<text x="4.8" y="10.75" textLength="1.8000001" style="fill: #c79e85;">for</text>
<text x="7.2000003" y="10.75" textLength="2.4" style="fill: #b3a59c;">word</text>
<text x="10.200001" y="10.75" textLength="1.2" style="fill: #c79e85;">in</text>
<text x="12" y="10.75" textLength="3" style="fill: #b3a59c;">line.</text>
<text x="15.000001" y="10.75" textLength="9.6" style="fill: #c79e85;">split_whitespace</text>
<text x="24.6" y="10.75" textLength="2.4" style="fill: #b3a59c;">() {</text>
<text x="0.6" y="11.75" textLength="1.2" style="fill: #7d7069;">12</text>
<text x="7.2000003" y="11.75" textLength="0.6" style="fill: #b3a59c;">i</text>
<text x="8.400001" y="11.75" textLength="1.2" style="fill: #c2a08b;">+=</text>
<text x="10.200001" y="11.75" textLength="2.4" style="fill: #b3a59c;">word</text>
<text x="0.6" y="12.75" textLength="1.2" style="fill: #7d7069;">13</text>
<text x="9.6" y="12.75" textLength="0.6" style="fill: #b3a59c;">.</text>
<text x="10.200001" y="12.75" textLength="3" style="fill: #c79e85;">parse</text>
<text x="13.200001" y="12.75" textLength="1.8000001" style="fill: #b3a59c;">::&lt;</text>
<text x="15.000001" y="12.75" textLength="1.8000001" style="fill: #c2a08b;">i64</text>
<text x="16.800001" y="12.75" textLength="1.8000001" style="fill: #b3a59c;">>()</text>
<text x="0.6" y="13.75" textLength="1.2" style="fill: #7d7069;">14</text>
<text x="9.6" y="13.75" textLength="0.6" style="fill: #b3a59c;">.</text>
<text x="10.200001" y="13.75" textLength="3.6000001" style="fill: #c79e85;">expect</text>
<text x="13.8" y="13.75" textLength="0.6" style="fill: #b3a59c;">(</text>
<text x="14.400001" y="13.75" textLength="16.800001" style="fill: #c2a08b;">"interpret input as numbers"</text>
<text x="31.2" y="13.75" textLength="1.2" style="fill: #b3a59c;">);</text>
<text x="0.6" y="14.75" textLength="1.2" style="fill: #7d7069;">15</text>
<text x="4.8" y="14.75" textLength="0.6" style="fill: #b3a59c;">}</text>
<text x="0.6" y="15.75" textLength="1.2" style="fill: #7d7069;">16</text>
<text x="4.8" y="15.75" textLength="4.8" style="fill: #c79e85;">println!</text>
<text x="9.6" y="15.75" textLength="0.6" style="fill: #b3a59c;">(</text>
<text x="10.200001" y="15.75" textLength="2.4" style="fill: #c2a08b;">"{}"</text>
<text x="12.6" y="15.75" textLength="3" style="fill: #b3a59c;">, i);</text>
<text x="0.6" y="16.75" textLength="1.2" style="fill: #7d7069;">17</text>
<text x="2.4" y="16.75" textLength="0.6" style="fill: #b3a59c;">}</text>
<text x="0" y="17.75" textLength="0.6" style="fill: #b3a59c;">~</text>
<text x="0" y="18.75" textLength="34.800003" style="fill: #120904;">./hi-nvim-rs-web/code-examples/rust.rs &#160;1,1 &#160;&#160;&#160;&#160;&#160;&#160;&#160;&#160;&#160;&#160;&#160;All</text>

</g>
</svg>
